<svg xmlns="http://www.w3.org/2000/svg" width="24" height="24" fill="none">
  <path fill="#000" fill-rule="evenodd" d="M13.9213 1.64625c.6209 1.09051.2434 2.47969-.8433 3.10284L6.32154 8.62354c-.17887.10256-.28918.29299-.28918.49918v6.08388c0 .2062.11031.3966.28918.4992l5.34586 3.0656c.1773.1016.3952.1016.5725 0l5.3459-3.0656c.1789-.1026.2892-.293.2892-.4992v-3.7835l-4.8077 2.7222c-1.0901.6172-2.4723.2308-3.08732-.8631-.61503-1.0939-.22996-2.481.86012-3.0982l6.8791-3.89507c2.0955-1.18648 4.6881.33288 4.6881 2.74735v6.63142c0 1.5532-.8293 2.9874-2.1731 3.758l-6.1407 3.5213c-1.3259.7603-2.9537.7603-4.27971 0l-6.14061-3.5213C2.32934 18.6551 1.5 17.2209 1.5 15.6677V8.66165c0-1.55323.82934-2.98737 2.17318-3.75798L10.8293.800026c1.0867-.623144 2.471-.244275 3.092.846224Z" clip-rule="evenodd"/>
</svg>
